<?xml version="1.0" encoding="utf-8"?>
<!-- Generator: Adobe Illustrator 27.4.1, SVG Export Plug-In . SVG Version: 6.00 Build 0)  -->
<svg version="1.1" id="Layer_1" xmlns="http://www.w3.org/2000/svg" xmlns:xlink="http://www.w3.org/1999/xlink" x="0px" y="0px"
	 viewBox="0 0 500 112.7" style="enable-background:new 0 0 500 112.7;" xml:space="preserve">
<style type="text/css">
	.st0{fill:#FFFFFF;}
</style>
<g>
	<path class="st0" d="M55.2,47c-5.2-1.6-27.6-7.9-27.6-16.8c0-4.4,4.8-8.3,15.4-8.3c7.3,0,14.2,2.2,15.6,2.7v13.6h23V10.1L81.4,10
		C81.3,9.9,65.6,0,43,0C16,0,0,14.6,0,32.5C0,46.4,8.9,57.2,30.5,64c7.1,2.2,27.6,7.3,27.6,16.5c0,5.9-5.8,10.3-18,10.3
		c-9,0-14.3-2-16.7-3l0-14h-23v28.7c3.3,2.1,17.2,10.2,37.7,10.2c7.3,0,47.6-1.1,47.6-34.4C85.7,71.3,83.5,55.8,55.2,47"/>
	<path class="st0" d="M123.8,92.2c-9.6,0-11.4-5.2-10.6-9.1c2-10.7,22.5-8.6,28.1-7.5l0,4.5C141.4,85.1,136,92.2,123.8,92.2
		 M164.6,41.7c0,0-2.1-5.9-5.8-9.6c-3.3-3.3-10.2-8.3-25.5-8.3c-22.7,0-37.8,7.9-37.8,7.9l6.1,19.8c0,0,12.1-7,27.4-7
		c11.2,0,12.5,5,12.5,10.4c0,0,0,4-0.1,4.5c0,0-51.2-8.6-51.2,26.9c0,14.8,10.6,25.3,28.4,25.3c16.5,0,23.2-8.1,25.4-10.8l1.9,9.5
		h20.4V54.5C166.4,50,165.8,45.3,164.6,41.7"/>
	<path class="st0" d="M258.6,58.4v52h-24.8V62.7c0-10.6-4.5-16.9-14.3-16.9c-6.3,0-13.7,3.8-16.3,10.7v53.8h-24.8V26.1h20l2.1,9.2
		c2.6-2.8,11.4-11.5,27.5-11.5C243.2,23.8,258.6,29.9,258.6,58.4"/>
	<path class="st0" d="M325.3,106.7l-1.3,0.7c-6.9,3.5-14.2,5.4-21.5,5.4c-28.2,0-33-16.7-33-30l0.1-73.8l0-0.8l24.8-6.9v25l24.1,0.1
		v21l-24.2,0.1l0,34.2c0,6.6,4.2,9.1,12.5,9.1c6.5,0,12.4-3.7,12.4-3.7L325.3,106.7z"/>
	<path class="st0" d="M370.2,91.4c-13.5,0-19.9-11.3-19.9-23.2c0-23.3,16.5-23.2,19.9-23.2c14.8,0,19.9,11.6,19.9,23.2
		C390.1,83.7,382.9,91.4,370.2,91.4 M370.2,23.8c-21.2,0-45.4,11.1-45.4,44.4c0,17,8.2,44.4,45.4,44.4c22.1,0,45.4-11.8,45.4-44.4
		C415.6,33.9,390.4,23.8,370.2,23.8"/>
	<path class="st0" d="M485,64c-8.6-4.1-22.2-6.9-26.3-8c-6.7-1.8-12.7-2.8-12.7-6.8c0-5.1,11.5-5.8,13.8-5.8c2.2,0,8.8,0,13.9,2.4
		v8.5h21.5V33.8c0,0-12.4-10-36.9-10c-20.8,0-37.1,9.2-37.1,26.3c0,10.6,6.7,16.9,14.9,21c8.6,4.4,22.2,7,26.4,8.1
		c3.8,1,12.7,3.3,12.7,7.3c0,3.5-4.2,5.8-11.1,5.8c-12.1,0-18.5-3.2-20.7-4.4V80h-21.5v20.1c3.1,2.5,17,12.6,40.3,12.6
		c21.9,0,38-8.5,38-28.1C500,74.3,493.5,68.1,485,64"/>
</g>
</svg>
